<svg xmlns="http://www.w3.org/2000/svg" viewBox="0 0 24 24" fill="none" stroke="currentColor" stroke-width="2" stroke-linecap="round" stroke-linejoin="round" class="w-6 h-6">
  <path d="M12 3c.6 0 1.1.5 1.1 1.1v1.8c0 .6-.5 1.1-1.1 1.1s-1.1-.5-1.1-1.1V4.1c0-.6.5-1.1 1.1-1.1z" />
  <path d="M12 17c.6 0 1.1.5 1.1 1.1v1.8c0 .6-.5 1.1-1.1 1.1s-1.1-.5-1.1-1.1v-1.8c0-.6.5-1.1 1.1-1.1z" />
  <path d="M4.1 12c0-.6.5-1.1 1.1-1.1h1.8c.6 0 1.1.5 1.1 1.1s-.5 1.1-1.1 1.1H5.2c-.6 0-1.1-.5-1.1-1.1z" />
  <path d="M17 12c0-.6.5-1.1 1.1-1.1h1.8c.6 0 1.1.5 1.1 1.1s-.5 1.1-1.1 1.1h-1.8c-.6 0-1.1-.5-1.1-1.1z" />
  <path d="M6.3 6.3c.4-.4 1.1-.4 1.5 0l1.3 1.3c.4.4.4 1.1 0 1.5s-1.1.4-1.5 0L6.3 7.8c-.4-.4-.4-1.1 0-1.5z" />
  <path d="M16.7 16.7c.4-.4 1.1-.4 1.5 0l1.3 1.3c.4.4.4 1.1 0 1.5s-1.1.4-1.5 0l-1.3-1.3c-.4-.4-.4-1.1 0-1.5z" />
  <path d="M6.3 17.7c-.4-.4-.4-1.1 0-1.5l1.3-1.3c.4-.4 1.1-.4 1.5 0s.4 1.1 0 1.5l-1.3 1.3c-.4.4-1.1.4-1.5 0z" />
  <path d="M16.7 7.3c-.4-.4-.4-1.1 0-1.5l1.3-1.3c.4-.4 1.1-.4 1.5 0s.4 1.1 0 1.5l-1.3 1.3c-.4.4-1.1.4-1.5 0z" />
</svg> 