<svg xmlns="http://www.w3.org/2000/svg" viewBox="0 0 24 24" fill="none" stroke="currentColor" stroke-width="2" stroke-linecap="round" stroke-linejoin="round">
  <path d="M12 2C13.1 2 14 2.9 14 4C14 5.1 13.1 6 12 6C10.9 6 10 5.1 10 4C10 2.9 10.9 2 12 2Z"/>
  <path d="M8 8C9.1 8 10 8.9 10 10C10 11.1 9.1 12 8 12C6.9 12 6 11.1 6 10C6 8.9 6.9 8 8 8Z"/>
  <path d="M16 8C17.1 8 18 8.9 18 10C18 11.1 17.1 12 16 12C14.9 12 14 11.1 14 10C14 8.9 14.9 8 16 8Z"/>
  <path d="M7 14C8.1 14 9 14.9 9 16C9 17.1 8.1 18 7 18C5.9 18 5 17.1 5 16C5 14.9 5.9 14 7 14Z"/>
  <path d="M17 14C18.1 14 19 14.9 19 16C19 17.1 18.1 18 17 18C15.9 18 15 17.1 15 16C15 14.9 15.9 14 17 14Z"/>
  <path d="M12 20C13.1 20 14 20.9 14 22C14 23.1 13.1 24 12 24C10.9 24 10 23.1 10 22C10 20.9 10.9 20 12 20Z"/>
  <path d="M12 12C13.66 12 15 10.66 15 9C15 7.34 13.66 6 12 6C10.34 6 9 7.34 9 9C9 10.66 10.34 12 12 12Z"/>
  <path d="M12 18C13.66 18 15 16.66 15 15C15 13.34 13.66 12 12 12C10.34 12 9 13.34 9 15C9 16.66 10.34 18 12 18Z"/>
</svg>
