<svg xmlns="http://www.w3.org/2000/svg" viewBox="0 0 24 24" fill="none" stroke="currentColor" stroke-width="2" stroke-linecap="round" stroke-linejoin="round" class="w-6 h-6">
  <path d="M12 2C6.5 2 2 6.5 2 12s4.5 10 10 10 10-4.5 10-10S17.5 2 12 2z" />
  <path d="M12 8c1.5 0 2.5.5 2.5 2s-1 2-2.5 2-2.5-.5-2.5-2 1-2 2.5-2z" />
  <path d="M12 14c1.5 0 2.5.5 2.5 2s-1 2-2.5 2-2.5-.5-2.5-2 1-2 2.5-2z" />
  <path d="M8 8c1.5 0 2.5.5 2.5 2s-1 2-2.5 2-2.5-.5-2.5-2 1-2 2.5-2z" />
  <path d="M16 8c1.5 0 2.5.5 2.5 2s-1 2-2.5 2-2.5-.5-2.5-2 1-2 2.5-2z" />
</svg> 