<?xml version="1.0" standalone="no"?>
<!DOCTYPE svg PUBLIC "-//W3C//DTD SVG 20010904//EN"
 "http://www.w3.org/TR/2001/REC-SVG-20010904/DTD/svg10.dtd">
<svg version="1.0" xmlns="http://www.w3.org/2000/svg"
 width="300.000000pt" height="288.000000pt" viewBox="0 0 300.000000 288.000000"
 preserveAspectRatio="xMidYMid meet">
<metadata>
Created by potrace 1.10, written by Peter Selinger 2001-2011
</metadata>
<g transform="translate(0.000000,288.000000) scale(0.100000,-0.100000)"
fill="#000000" stroke="none">
<path d="M1401 2630 c-1 -75 1 -90 14 -90 12 0 15 13 15 62 l0 62 65 -64 c36
-35 65 -62 65 -60 1 3 1 43 2 90 1 67 -2 85 -13 85 -11 0 -13 -13 -11 -60 l4
-60 -48 45 c-27 25 -54 53 -62 63 -7 9 -17 17 -21 17 -4 0 -9 -40 -10 -90z"/>
<path d="M1267 2703 c-16 -4 -18 -12 -11 -71 3 -37 11 -77 15 -90 14 -36 30
-16 23 29 -6 35 -4 39 14 39 26 0 52 25 52 50 0 39 -39 57 -93 43z m63 -42 c0
-17 -18 -31 -41 -31 -5 0 -9 11 -9 25 0 20 5 25 25 25 18 0 25 -5 25 -19z"/>
<path d="M1627 2703 c-2 -4 -7 -36 -11 -71 -4 -35 -9 -69 -12 -77 -7 -16 86
-39 100 -25 9 9 -32 30 -60 30 -17 0 -17 1 -4 34 8 23 12 25 36 16 14 -6 30
-8 35 -4 19 11 8 22 -31 29 -42 7 -45 11 -31 34 6 9 18 11 39 6 18 -4 33 -2
37 5 4 6 5 13 4 14 -10 8 -98 16 -102 9z"/>
<path d="M1783 2678 c-14 -19 -40 -120 -35 -141 4 -21 52 -47 86 -47 30 0 50
26 71 96 18 60 18 64 2 64 -7 0 -22 -28 -32 -62 -19 -59 -22 -63 -52 -66 -48
-5 -58 22 -33 94 19 55 15 90 -7 62z"/>
<path d="M1063 2657 c-17 -7 -34 -15 -38 -18 -3 -4 6 -40 19 -80 25 -72 26
-74 57 -71 41 3 74 21 62 33 -6 6 -20 5 -38 -3 -24 -11 -29 -10 -41 7 -19 25
-13 39 17 43 30 4 43 17 35 31 -5 8 -16 7 -35 -4 -21 -10 -31 -11 -40 -2 -19
19 -12 34 21 43 17 5 33 15 36 22 5 15 -12 14 -55 -1z"/>
<path d="M1953 2546 c-50 -61 -63 -86 -45 -86 5 0 21 18 38 40 16 22 33 40 38
40 5 0 6 -25 3 -55 -3 -30 -3 -55 0 -55 3 0 22 14 43 30 50 40 63 39 44 -5
-17 -43 -18 -65 -1 -65 8 0 18 25 26 63 8 34 18 70 23 80 18 34 -1 30 -50 -12
-28 -22 -53 -41 -57 -41 -4 0 -5 29 -3 65 3 36 3 65 -1 65 -3 0 -30 -29 -58
-64z"/>
<path d="M885 2584 c-22 -8 -43 -18 -48 -23 -14 -14 60 -151 81 -151 19 0 60
26 79 50 18 22 15 72 -5 96 -15 19 -54 45 -64 43 -2 0 -21 -7 -43 -15z m75
-34 c27 -27 26 -75 -2 -94 -34 -24 -42 -20 -68 32 -14 26 -26 50 -28 53 -4 8
38 27 61 28 9 1 26 -8 37 -19z"/>
<path d="M663 2457 c-18 -12 -33 -25 -33 -30 0 -10 100 -137 108 -137 15 1 75
60 68 67 -4 4 -15 2 -24 -5 -31 -22 -42 -24 -57 -12 -22 18 -18 35 10 48 14 6
25 18 25 27 0 20 -6 19 -41 -6 -16 -11 -33 -17 -39 -14 -18 11 -11 34 15 51
27 17 33 34 13 33 -7 0 -28 -10 -45 -22z"/>
<path d="M2159 2451 c-20 -20 -29 -39 -29 -61 0 -46 47 -90 95 -90 48 0 95 44
95 90 0 46 -47 90 -95 90 -27 0 -44 -8 -66 -29z m105 -12 c48 -38 24 -109 -37
-109 -38 0 -67 25 -67 59 0 31 8 44 35 59 28 16 39 15 69 -9z"/>
<path d="M1365 2444 c-222 -34 -385 -97 -533 -206 -206 -152 -339 -352 -402
-608 -54 -216 -19 -486 91 -702 22 -44 67 -105 56 -78 -3 8 -21 56 -40 105
-47 119 -67 234 -68 375 -1 223 38 363 148 531 148 227 381 377 653 420 120
18 385 -3 416 -34 4 -4 15 -7 25 -7 25 0 158 -71 227 -122 162 -119 282 -295
351 -518 18 -58 20 -61 17 -24 -2 23 -6 46 -10 52 -3 6 -8 24 -10 41 -2 16
-11 37 -20 46 -9 9 -16 26 -16 37 0 26 -65 144 -86 156 -9 5 -14 11 -12 14 9
15 -143 174 -207 216 -22 15 -42 29 -45 32 -12 14 -99 58 -135 70 -22 7 -45
17 -52 22 -11 9 -137 42 -193 51 -14 3 -33 0 -44 -5 -13 -7 -16 -7 -12 1 9 14
-117 15 -199 0 -33 -5 -73 -12 -90 -15 -29 -5 -87 -28 -212 -84 -34 -16 -88
-47 -120 -71 -58 -42 -244 -225 -236 -232 2 -2 -3 -10 -12 -17 -8 -7 -15 -16
-15 -20 0 -4 -12 -29 -27 -56 -16 -27 -38 -71 -50 -99 -40 -89 -24 -20 18 80
65 158 179 309 294 391 33 24 66 48 73 55 28 23 180 97 247 119 39 12 79 26
90 31 65 27 395 35 458 10 15 -6 42 -12 60 -15 44 -5 188 -62 260 -103 32 -18
61 -33 63 -33 2 0 30 -21 62 -46 81 -65 210 -201 233 -246 11 -21 24 -38 29
-38 6 0 10 -8 10 -19 0 -10 7 -24 15 -31 8 -7 15 -21 15 -32 0 -10 5 -16 10
-13 6 3 10 -5 10 -19 0 -14 5 -28 10 -31 6 -3 10 -17 10 -31 0 -13 5 -24 10
-24 6 0 10 -11 10 -24 0 -14 5 -28 10 -31 6 -4 8 -10 5 -15 -7 -11 14 -90 27
-104 4 -6 8 1 8 16 0 15 -4 29 -9 32 -4 3 -11 27 -15 54 -7 55 -51 174 -91
247 -78 141 -196 269 -335 364 -72 49 -211 121 -235 121 -4 0 -21 6 -38 14
-78 36 -350 65 -452 50z"/>
<path d="M539 2351 c-74 -75 16 -192 109 -142 28 15 56 57 47 71 -10 16 -22
12 -28 -9 -8 -33 -49 -53 -84 -41 -58 21 -63 102 -6 116 13 4 23 12 23 20 0
23 -30 16 -61 -15z"/>
<path d="M2328 2301 l-58 -57 33 -32 c18 -18 36 -32 40 -32 16 0 6 29 -15 44
l-23 16 53 48 c51 47 65 73 40 71 -7 0 -39 -26 -70 -58z"/>
<path d="M2409 2221 c-50 -51 -32 -129 35 -151 41 -13 75 -2 105 36 30 38 27
70 -13 110 -44 44 -86 46 -127 5z m111 -21 c11 -11 20 -31 20 -44 0 -28 -42
-66 -72 -66 -23 0 -68 43 -68 65 0 25 46 65 75 65 14 0 34 -9 45 -20z"/>
<path d="M422 2231 c2 -4 31 -32 66 -60 41 -34 69 -51 79 -47 9 4 14 8 12 10
-60 59 -168 126 -157 97z"/>
<path d="M380 2182 c0 -5 16 -30 36 -56 20 -26 34 -50 31 -52 -3 -3 -31 2 -63
10 -44 12 -60 12 -66 3 -10 -17 8 -25 76 -32 34 -4 71 -11 84 -16 31 -12 28
-1 -24 77 -41 62 -74 91 -74 66z"/>
<path d="M2554 2050 c-56 -22 -69 -90 -28 -139 27 -32 64 -40 94 -21 13 8 13
12 0 36 -8 15 -19 26 -25 25 -11 -3 -11 -6 0 -33 9 -23 -12 -24 -43 -2 -28 19
-30 74 -4 97 42 39 112 9 112 -46 0 -17 5 -27 15 -27 27 0 18 58 -14 91 -30
30 -65 36 -107 19z"/>
<path d="M271 1994 c-12 -15 -21 -31 -21 -35 0 -12 156 -90 164 -82 13 13 5
22 -29 34 -43 16 -45 29 -6 29 16 0 41 4 55 10 34 13 34 34 1 26 -14 -3 -36
-9 -50 -12 -20 -5 -25 -2 -25 13 0 47 -57 58 -89 17z m53 0 c18 -7 22 -39 6
-49 -5 -3 -19 -1 -30 5 -16 9 -18 15 -10 30 12 22 12 22 34 14z"/>
<path d="M1112 1969 c-151 -75 -309 -474 -300 -759 2 -91 6 -113 24 -137 31
-42 60 -40 161 11 117 58 156 67 268 56 50 -4 92 -6 94 -4 2 2 -8 16 -23 31
-45 45 -75 132 -76 219 0 36 -4 44 -37 67 -100 66 -153 141 -153 215 0 85 37
96 74 23 30 -59 100 -123 155 -141 23 -7 44 -11 46 -8 3 3 -8 19 -25 36 -36
36 -38 57 -7 95 40 50 139 54 182 7 13 -15 16 -30 12 -60 -3 -22 -3 -40 -1
-40 8 0 109 73 137 99 15 14 42 48 59 76 64 102 98 118 98 45 0 -51 -30 -95
-172 -251 -84 -92 -106 -126 -130 -202 -24 -78 -23 -113 7 -174 l26 -51 127 2
c125 1 128 1 189 -31 90 -48 141 -44 171 11 13 24 16 55 15 141 -2 312 -121
598 -292 707 -62 39 -101 37 -139 -6 -32 -37 -72 -131 -72 -171 0 -28 -7 -30
-60 -14 -30 9 -48 8 -93 -5 -30 -9 -57 -16 -60 -16 -2 0 -7 31 -10 69 -7 89
-36 148 -82 167 -46 19 -62 18 -113 -7z m121 -49 c15 -17 30 -54 37 -87 6 -32
17 -70 25 -85 13 -25 11 -32 -12 -75 -15 -27 -27 -49 -29 -51 -8 -11 -47 25
-69 62 -46 78 -82 97 -122 62 -23 -20 -27 -31 -26 -73 0 -28 8 -67 18 -87 19
-39 92 -120 139 -153 23 -16 30 -30 38 -79 5 -32 18 -83 28 -112 28 -75 28
-75 -37 -70 -72 6 -146 -12 -235 -57 -79 -41 -98 -43 -124 -14 -16 17 -19 37
-19 108 0 111 7 162 40 296 47 190 157 389 236 428 52 25 83 22 112 -13z m493
-1 c40 -24 43 -44 11 -69 -12 -10 -42 -46 -66 -82 -40 -60 -93 -108 -118 -108
-6 0 -18 12 -28 26 -16 25 -16 26 9 49 14 13 26 31 26 40 0 20 48 124 68 148
20 23 57 22 98 -4z m203 -272 c42 -110 69 -239 76 -372 6 -95 4 -115 -12 -145
-16 -32 -22 -35 -57 -33 -22 2 -62 14 -89 29 -64 33 -139 45 -219 34 -55 -8
-65 -7 -81 9 -27 27 -38 88 -27 146 14 68 57 133 174 262 58 64 108 130 124
162 l25 55 27 -33 c15 -18 42 -69 59 -114z"/>
<path d="M207 1855 l-16 -45 47 -14 c26 -7 64 -21 85 -29 l37 -16 15 36 c8 19
15 42 15 49 0 25 -21 15 -31 -16 -11 -30 -31 -38 -58 -21 -10 6 -11 13 -2 29
6 11 11 28 11 37 0 25 -24 12 -30 -16 -4 -15 -14 -25 -29 -27 -20 -3 -23 0
-19 20 3 12 9 31 13 41 5 12 3 17 -8 17 -9 0 -21 -18 -30 -45z"/>
<path d="M2637 1857 c-43 -17 -76 -35 -74 -41 5 -15 19 -12 105 20 41 15 72
33 72 40 0 19 -13 17 -103 -19z"/>
<path d="M2720 1801 c-8 -5 -39 -14 -68 -21 -28 -6 -54 -15 -56 -19 -8 -13 18
-91 31 -91 16 0 17 15 2 42 -9 18 -8 24 7 35 21 15 44 17 44 4 0 -5 5 -22 10
-37 7 -18 14 -24 21 -17 6 6 6 19 -1 38 -8 22 -8 30 2 37 20 12 32 4 42 -30 5
-18 15 -32 22 -32 18 0 17 5 -2 57 -17 43 -26 49 -54 34z"/>
<path d="M172 1738 c-7 -7 -12 -24 -12 -38 0 -57 47 -66 96 -19 20 20 39 29
48 26 20 -8 21 -46 1 -53 -16 -7 -21 -34 -6 -34 14 0 39 27 47 52 5 16 0 27
-20 45 -35 29 -38 29 -81 -8 -20 -18 -41 -29 -50 -25 -19 7 -19 20 0 36 8 7
15 16 15 21 0 13 -24 11 -38 -3z"/>
<path d="M2304 1416 c0 -64 4 -116 8 -116 11 0 10 202 -1 218 -5 8 -8 -35 -7
-102z"/>
<path d="M2527 1460 c-3 -41 -5 -106 -4 -145 2 -64 -11 -134 -34 -177 -5 -10
-5 -19 1 -23 11 -7 33 42 25 55 -2 4 2 21 10 37 15 29 19 107 12 198 -3 28 -2
52 2 55 4 3 4 21 1 40 -5 28 -7 21 -13 -40z"/>
<path d="M2291 1243 c-5 -21 -13 -51 -16 -68 l-6 -30 14 30 c15 33 31 105 23
105 -3 0 -10 -17 -15 -37z"/>
<path d="M210 1229 c-57 -21 -74 -104 -30 -144 24 -22 38 -1 16 24 -35 39 -1
101 55 101 38 0 72 -44 64 -82 -8 -34 12 -39 24 -6 25 68 -57 135 -129 107z"/>
<path d="M2715 1213 c-106 -25 -105 -22 -18 -85 51 -37 81 -53 88 -46 9 8 -11
31 -36 40 -4 2 -4 19 0 38 5 25 13 36 28 38 12 2 27 10 33 18 10 11 8 14 -11
13 -13 -1 -51 -8 -84 -16z m15 -42 c0 -27 -12 -32 -34 -16 -21 16 -13 35 15
35 12 0 19 -7 19 -19z"/>
<path d="M273 1047 c-50 -18 -83 -35 -83 -43 0 -18 18 -17 50 1 35 20 38 19
55 -21 20 -48 19 -51 -12 -57 -42 -10 -60 -24 -47 -37 9 -9 19 -8 40 3 16 8
53 22 82 32 30 10 51 22 49 28 -4 12 -17 13 -52 2 -17 -5 -23 0 -33 29 -15 40
-10 56 18 56 10 0 22 5 26 11 15 25 -16 23 -93 -4z"/>
<path d="M2614 1069 c-18 -9 -70 -97 -62 -104 12 -11 154 -55 164 -51 7 3 18
23 24 45 14 53 0 88 -45 106 -39 17 -52 18 -81 4z m86 -37 c19 -16 22 -24 16
-55 -4 -20 -10 -37 -13 -37 -3 0 -30 8 -60 17 -59 18 -68 38 -33 73 25 25 61
26 90 2z"/>
<path d="M2464 1048 c-19 -30 -44 -83 -44 -93 0 -6 -13 -25 -30 -43 -16 -18
-30 -37 -30 -41 0 -14 -114 -113 -143 -124 -9 -3 -17 -11 -17 -17 0 -5 -6 -10
-14 -10 -8 0 -22 -10 -30 -22 -9 -12 -16 -19 -16 -15 0 4 -10 2 -22 -5 -13 -7
-26 -11 -30 -10 -5 1 -8 -4 -8 -12 0 -8 -14 -18 -32 -21 -30 -7 -66 -23 -78
-35 -13 -13 -51 -29 -84 -35 -20 -4 -36 -10 -36 -14 0 -4 -15 -8 -32 -8 -18 0
-55 -4 -83 -9 -76 -13 -200 -10 -265 8 -59 16 -150 52 -150 60 0 5 -10 8 -22
8 -14 0 -19 3 -12 10 6 6 28 5 62 -4 75 -20 208 -18 253 4 30 16 59 54 59 79
0 4 -10 18 -22 32 -12 13 -31 34 -42 47 l-20 23 59 -5 c33 -3 84 -9 114 -12
77 -10 204 13 261 47 8 5 25 13 37 19 28 12 137 119 129 127 -3 3 -27 -17 -53
-43 -60 -61 -131 -99 -214 -115 -102 -19 -118 -19 -244 3 -159 28 -229 34
-223 18 2 -7 35 -28 72 -49 95 -50 129 -82 118 -113 -12 -30 -60 -47 -139 -47
-97 -1 -202 24 -354 84 -157 63 -196 73 -228 56 -27 -15 -20 -27 20 -35 17 -3
65 -22 106 -41 41 -19 76 -35 78 -35 2 0 65 -29 141 -65 80 -39 166 -72 208
-81 127 -27 313 -12 436 35 69 27 204 93 208 104 2 4 8 7 14 7 6 0 46 26 90
57 70 50 137 114 192 183 24 30 80 149 73 156 -3 3 -9 -1 -13 -8z"/>
<path d="M2526 922 c-8 -13 10 -26 77 -56 59 -26 65 -34 45 -54 -6 -6 -8 -15
-4 -19 10 -11 46 35 40 50 -4 10 -57 42 -146 85 -3 2 -9 -1 -12 -6z"/>
<path d="M370 880 c-75 -48 -80 -54 -80 -81 0 -32 41 -79 70 -79 11 0 46 14
78 32 71 39 68 36 55 49 -7 7 -26 1 -62 -20 -57 -34 -83 -38 -101 -17 -24 30
-7 58 52 90 32 17 58 37 58 44 0 19 -21 13 -70 -18z"/>
<path d="M2480 827 c0 -7 22 -26 50 -42 54 -32 67 -53 50 -85 -16 -29 -48 -25
-106 14 -47 32 -64 36 -64 16 0 -12 117 -80 137 -80 23 0 58 35 68 68 8 28 -9
50 -75 92 -52 33 -60 36 -60 17z"/>
<path d="M503 637 c-40 -23 -72 -48 -73 -54 0 -19 11 -16 53 13 21 14 41 23
45 20 3 -4 -4 -26 -15 -50 -12 -24 -19 -46 -17 -49 3 -3 26 2 50 10 25 8 48
13 51 10 3 -3 -7 -22 -23 -42 -18 -24 -24 -39 -17 -46 7 -7 27 14 62 66 49 72
60 104 27 76 -8 -7 -27 -16 -43 -20 -15 -5 -36 -12 -45 -16 -10 -4 -18 -3 -18
3 0 8 27 74 48 115 7 14 -14 5 -85 -36z"/>
<path d="M865 661 c-11 -19 26 -40 71 -41 23 0 82 -12 130 -26 136 -40 132
-39 114 -21 -8 9 -58 32 -110 52 -104 40 -192 55 -205 36z"/>
<path d="M2340 648 c-58 -40 -59 -103 -3 -148 74 -58 178 36 132 122 -9 18
-64 48 -87 48 -5 0 -24 -10 -42 -22z m95 -33 c30 -29 31 -45 4 -79 -26 -33
-70 -35 -99 -4 -27 30 -25 62 6 87 35 27 59 26 89 -4z"/>
<path d="M932 568 c3 -9 34 -15 89 -18 85 -6 97 -5 86 6 -22 22 -182 33 -175
12z"/>
<path d="M669 491 c-37 -37 -38 -79 -3 -120 37 -45 101 -45 138 0 35 42 34 80
-5 118 -41 42 -89 42 -130 2z m113 -18 c39 -35 3 -113 -53 -113 -49 0 -76 74
-42 112 20 22 70 23 95 1z"/>
<path d="M2150 494 c0 -3 21 -37 48 -74 42 -62 72 -87 72 -60 0 17 -94 140
-107 140 -7 0 -13 -3 -13 -6z"/>
<path d="M2110 453 c0 -10 5 -38 11 -62 5 -24 7 -46 5 -49 -3 -2 -28 12 -56
33 -31 23 -55 34 -61 28 -5 -5 22 -31 71 -66 l80 -57 -6 38 c-3 20 -9 61 -12
91 -4 30 -13 56 -19 59 -8 2 -13 -4 -13 -15z"/>
<path d="M858 357 c-21 -40 -38 -79 -38 -85 0 -25 22 -11 36 23 16 40 18 41
69 20 l36 -16 -21 -36 c-14 -25 -18 -39 -11 -46 13 -13 11 -17 56 71 27 52 35
76 27 84 -7 7 -15 1 -27 -21 -9 -18 -19 -31 -23 -28 -4 2 -22 10 -39 17 -37
16 -40 26 -17 51 15 16 12 39 -4 39 -4 0 -24 -33 -44 -73z"/>
<path d="M1810 327 c-14 -6 -27 -12 -29 -13 -1 -2 9 -39 24 -84 30 -89 32 -90
100 -51 56 32 64 87 19 136 -25 27 -70 32 -114 12z m105 -47 c21 -40 12 -64
-28 -83 -17 -9 -32 -15 -33 -14 -9 9 -42 112 -38 119 3 4 23 8 44 8 34 0 42
-4 55 -30z"/>
<path d="M1048 266 c-53 -57 -70 -86 -51 -86 4 0 17 9 29 21 18 17 27 19 55
11 27 -6 35 -14 39 -38 5 -28 25 -38 25 -11 -2 64 -19 167 -29 166 -6 -1 -37
-29 -68 -63z m62 -11 c0 -15 -6 -25 -14 -25 -22 0 -30 19 -16 35 18 22 30 18
30 -10z"/>
<path d="M1681 298 c-32 -9 -33 -11 -26 -46 4 -20 10 -57 14 -82 l6 -45 45 4
c50 3 60 7 60 23 0 7 -14 8 -39 4 -34 -5 -39 -3 -45 17 -9 34 -8 36 26 39 17
2 33 9 36 17 3 10 -4 12 -38 6 -40 -7 -41 -6 -38 16 2 17 11 25 32 29 16 3 31
11 34 18 4 14 -18 14 -67 0z"/>
<path d="M1230 286 c0 -9 -12 -45 -27 -81 -14 -36 -24 -68 -20 -71 11 -12 27
7 37 46 6 22 15 40 19 40 5 0 15 -22 22 -50 7 -28 16 -50 20 -50 4 0 20 21 36
48 l28 47 5 -54 c5 -58 30 -85 30 -33 0 51 -13 152 -19 152 -3 0 -18 -23 -33
-50 -16 -28 -32 -50 -38 -50 -8 0 -23 44 -32 94 -4 24 -28 34 -28 12z"/>
<path d="M1437 193 c-9 -48 -15 -89 -12 -91 11 -11 25 13 31 53 3 25 10 45 14
45 4 0 16 -20 27 -45 17 -42 43 -61 43 -31 0 7 7 31 16 52 18 42 27 36 38 -28
4 -24 13 -38 21 -38 19 0 19 6 -5 75 -11 32 -20 66 -20 77 0 36 -18 17 -40
-42 -12 -33 -24 -60 -26 -60 -2 0 -17 27 -34 60 -17 33 -32 60 -33 60 -2 0
-11 -39 -20 -87z"/>
</g>
</svg>
