<?xml version="1.0" standalone="no"?>
<!DOCTYPE svg PUBLIC "-//W3C//DTD SVG 20010904//EN"
 "http://www.w3.org/TR/2001/REC-SVG-20010904/DTD/svg10.dtd">
<svg version="1.0" xmlns="http://www.w3.org/2000/svg"
 width="300.000000pt" height="243.000000pt" viewBox="0 0 300.000000 243.000000"
 preserveAspectRatio="xMidYMid meet">
<metadata>
Created by potrace 1.10, written by Peter Selinger 2001-2011
</metadata>
<g transform="translate(0.000000,243.000000) scale(0.100000,-0.100000)"
fill="#000000" stroke="none">
<path d="M1450 1779 c0 -233 2 -226 -74 -321 -47 -61 -72 -72 -164 -78 -45 -3
-82 -1 -82 3 0 4 -21 30 -46 57 -26 28 -51 67 -58 90 -15 52 -32 51 -28 -1 3
-44 31 -107 56 -128 9 -8 16 -19 16 -25 0 -12 -125 -46 -168 -46 -15 0 -22 -5
-19 -12 4 -15 28 -15 173 -3 56 4 118 5 138 1 l37 -7 -70 -65 c-46 -43 -79
-83 -93 -115 -17 -36 -30 -51 -48 -55 -78 -17 -137 -71 -206 -189 -21 -35 -45
-67 -53 -71 -9 -4 -47 -10 -86 -13 -82 -7 -89 -25 -10 -29 72 -4 130 13 152
44 55 78 55 79 50 -31 -4 -75 -13 -124 -36 -195 -28 -88 -32 -117 -13 -94 14
15 71 170 88 237 11 42 15 85 11 134 -5 64 -3 73 16 92 27 25 94 54 107 46 6
-4 10 -23 10 -43 0 -20 7 -91 15 -157 22 -176 21 -191 -17 -229 -18 -18 -39
-35 -47 -37 -9 -3 -12 -12 -8 -23 6 -16 10 -16 49 6 23 13 53 39 66 58 23 34
23 39 21 250 -1 132 2 225 9 240 13 31 70 85 194 184 54 43 123 101 154 131
l56 53 57 -57 c32 -31 106 -94 166 -141 203 -159 190 -131 190 -410 0 -214 1
-226 21 -255 31 -42 98 -79 113 -62 8 10 1 21 -34 45 -57 40 -61 63 -41 238 9
77 17 155 19 174 2 19 9 35 15 34 7 -1 21 -2 32 -3 10 0 35 -15 55 -32 35 -31
35 -32 29 -93 -4 -36 -1 -87 6 -121 12 -61 76 -242 91 -259 20 -22 16 6 -12
99 -30 100 -48 238 -35 271 5 14 11 10 33 -24 35 -54 61 -66 146 -67 95 0 103
18 12 25 -39 3 -76 10 -83 14 -7 4 -37 45 -66 89 -58 91 -121 153 -163 163
-16 3 -35 8 -43 10 -8 2 -23 24 -33 49 -13 30 -44 68 -93 114 l-73 69 31 6
c46 9 135 7 208 -5 66 -10 110 -6 110 11 0 6 -9 10 -21 10 -21 0 -160 30 -168
37 -2 2 10 23 27 46 33 47 58 126 48 153 -9 23 -20 9 -35 -43 -6 -24 -27 -57
-45 -75 -18 -18 -37 -41 -43 -51 -7 -14 -25 -19 -79 -22 -89 -4 -123 12 -177
84 -82 108 -77 88 -77 321 l0 210 -90 0 -90 0 0 -211z m150 -29 l5 -196 35
-54 c50 -79 88 -118 133 -141 32 -17 41 -18 48 -7 13 19 30 -10 23 -39 -5 -17
9 -37 59 -91 36 -38 74 -87 85 -109 11 -22 28 -45 36 -52 20 -17 20 -28 2 -47
-8 -7 -16 -19 -19 -26 -7 -20 -16 -5 -23 37 -12 75 -33 105 -134 186 -30 24
-57 46 -60 49 -3 3 -23 19 -45 35 -22 16 -66 54 -97 84 -82 77 -96 85 -122 73
-12 -5 -44 -30 -71 -55 -28 -24 -77 -66 -111 -93 -169 -137 -205 -170 -224
-209 -11 -23 -20 -50 -20 -61 0 -10 -4 -26 -9 -33 -8 -12 -13 -11 -30 10 -26
30 -26 41 -2 56 11 7 28 29 37 49 10 20 46 65 81 101 60 61 76 94 53 108 -22
13 -8 25 29 25 29 0 51 9 83 33 54 41 125 141 133 187 3 19 6 107 7 195 1 88
3 166 6 173 3 9 21 12 56 10 l51 -3 5 -195z"/>
<path d="M1031 1760 c-61 -13 -166 -64 -229 -111 -127 -96 -240 -320 -357
-704 -83 -274 -64 -476 56 -596 88 -88 171 -103 373 -69 248 42 361 86 453
176 99 98 146 232 147 424 0 97 -4 131 -28 220 -16 58 -32 108 -36 113 -3 4
-23 -5 -43 -20 -41 -31 -41 -24 -8 -147 36 -135 22 -324 -31 -429 -47 -93
-143 -165 -269 -201 -90 -26 -269 -56 -336 -56 -105 0 -160 37 -204 135 -62
138 -21 368 130 745 90 221 174 330 306 391 165 78 282 30 299 -120 4 -34 11
-61 16 -61 5 0 25 14 45 32 34 29 36 34 29 72 -13 80 -66 151 -143 190 -37 20
-116 27 -170 16z m133 -44 c73 -25 118 -75 141 -153 3 -12 1 -24 -4 -27 -6 -4
-15 10 -21 31 -20 73 -109 143 -180 143 -49 0 -173 -44 -225 -80 -100 -70
-187 -193 -253 -361 -22 -58 -47 -119 -53 -135 -7 -16 -13 -33 -14 -39 -2 -5
-14 -44 -28 -85 -109 -319 -97 -519 39 -639 52 -46 38 -57 -19 -13 -36 27 -71
79 -95 142 -24 60 -20 259 7 360 57 214 162 487 233 608 48 81 136 167 205
199 32 15 61 31 64 36 3 5 12 7 20 6 8 -1 21 0 29 4 35 13 47 15 80 16 19 0
53 -5 74 -13z m263 -716 c29 -161 -1 -348 -73 -456 -77 -116 -192 -173 -455
-223 -117 -23 -165 -26 -174 -11 -4 6 8 10 28 10 19 0 79 9 133 20 55 11 113
23 129 26 43 7 109 31 171 60 108 51 205 194 222 329 14 107 6 258 -17 318 -6
16 -11 40 -10 55 1 26 1 26 16 -8 8 -19 22 -73 30 -120z m-736 -690 c35 -19
20 -27 -36 -17 -30 6 -52 14 -49 19 7 11 61 10 85 -2z"/>
<path d="M1939 1763 c-15 -2 -51 -18 -80 -36 -63 -38 -109 -105 -116 -169 -5
-41 -3 -46 38 -83 l44 -40 6 68 c6 75 24 107 80 145 29 21 43 23 95 19 132
-10 272 -113 352 -258 65 -120 152 -349 204 -539 65 -240 29 -428 -93 -491
-52 -26 -142 -24 -299 5 -323 61 -425 152 -460 413 -14 102 -5 195 30 301 l19
56 -37 33 c-20 18 -40 32 -43 33 -3 0 -18 -46 -34 -102 -71 -258 -31 -509 105
-652 91 -96 208 -143 460 -187 212 -36 297 -17 389 87 58 66 83 139 89 257 6
141 -23 275 -119 536 -79 214 -151 352 -224 430 -117 123 -284 195 -406 174z
m91 -44 c0 -5 -19 -9 -43 -9 -31 0 -57 -9 -90 -30 -45 -28 -97 -95 -97 -124 0
-8 -4 -18 -10 -21 -13 -8 -13 11 0 54 12 43 63 98 113 121 39 18 127 24 127 9z
m50 -20 c0 -20 -15 -26 -25 -9 -9 15 3 43 15 35 5 -3 10 -15 10 -26z m187 -86
c50 -40 117 -127 155 -198 28 -54 125 -290 134 -325 0 -3 3 -12 7 -20 7 -17
50 -165 67 -228 6 -23 8 -46 5 -51 -3 -5 0 -11 5 -13 14 -4 14 -215 1 -252 -6
-15 -16 -24 -21 -21 -6 4 -7 12 -3 18 9 14 21 236 13 240 -3 1 -16 45 -28 97
-28 111 -77 263 -98 302 -8 14 -14 33 -14 41 0 9 -7 28 -15 44 -8 15 -33 66
-54 113 -22 47 -48 98 -58 115 -31 51 -96 117 -150 152 -29 18 -53 38 -53 44
0 13 57 -17 107 -58z m-557 -488 c0 -9 -7 -32 -15 -52 -8 -19 -15 -48 -15 -64
0 -15 -3 -30 -7 -32 -11 -7 -7 -136 5 -217 20 -133 81 -242 168 -302 42 -29
145 -74 188 -82 14 -2 30 -7 35 -10 8 -5 161 -31 266 -46 42 -5 46 -7 25 -14
-26 -7 -65 -4 -76 6 -3 4 -12 4 -19 2 -8 -3 -51 2 -97 12 -46 9 -90 18 -98 19
-92 11 -243 87 -306 153 -40 43 -92 160 -104 236 -17 106 -12 259 11 339 18
61 39 89 39 52z m855 -741 c-23 -31 -64 -57 -73 -49 -2 2 18 25 45 51 53 54
70 53 28 -2z m-85 -73 c0 -4 -15 -11 -32 -14 -18 -3 -42 -8 -53 -12 -18 -6
-17 -4 4 14 23 21 81 29 81 12z"/>
</g>
</svg>
