<?xml version="1.0" encoding="UTF-8"?>
<svg xmlns="http://www.w3.org/2000/svg" xmlns:xlink="http://www.w3.org/1999/xlink" width="800px" height="768px" viewBox="0 0 800 768" version="1.1">
<g id="surface1">
<path style=" stroke:none;fill-rule:nonzero;fill:rgb(0%,0%,0%);fill-opacity:1;" d="M 373.601562 66.667969 C 373.332031 86.667969 373.867188 90.667969 377.332031 90.667969 C 380.535156 90.667969 381.332031 87.199219 381.332031 74.132812 L 381.332031 57.601562 L 398.667969 74.667969 C 408.265625 84 416 91.199219 416 90.667969 C 416.265625 89.867188 416.265625 79.199219 416.535156 66.667969 C 416.800781 48.800781 416 44 413.066406 44 C 410.132812 44 409.601562 47.464844 410.132812 60 L 411.199219 76 L 398.398438 64 C 391.199219 57.332031 384 49.867188 381.867188 47.199219 C 380 44.800781 377.332031 42.667969 376.265625 42.667969 C 375.199219 42.667969 373.867188 53.332031 373.601562 66.667969 Z M 373.601562 66.667969 "/>
<path style=" stroke:none;fill-rule:nonzero;fill:rgb(0%,0%,0%);fill-opacity:1;" d="M 337.867188 47.199219 C 333.601562 48.265625 333.066406 50.398438 334.933594 66.132812 C 335.734375 76 337.867188 86.667969 338.933594 90.132812 C 342.667969 99.734375 346.933594 94.398438 345.066406 82.398438 C 343.464844 73.066406 344 72 348.800781 72 C 355.734375 72 362.667969 65.332031 362.667969 58.667969 C 362.667969 48.265625 352.265625 43.464844 337.867188 47.199219 Z M 354.667969 58.398438 C 354.667969 62.933594 349.867188 66.667969 343.734375 66.667969 C 342.398438 66.667969 341.332031 63.734375 341.332031 60 C 341.332031 54.667969 342.667969 53.332031 348 53.332031 C 352.800781 53.332031 354.667969 54.667969 354.667969 58.398438 Z M 354.667969 58.398438 "/>
<path style=" stroke:none;fill-rule:nonzero;fill:rgb(0%,0%,0%);fill-opacity:1;" d="M 433.867188 47.199219 C 433.332031 48.265625 432 56.800781 430.933594 66.132812 C 429.867188 75.464844 428.535156 84.535156 427.734375 86.667969 C 425.867188 90.933594 450.667969 97.066406 454.398438 93.332031 C 456.800781 90.933594 445.867188 85.332031 438.398438 85.332031 C 433.867188 85.332031 433.867188 85.066406 437.332031 76.265625 C 439.464844 70.132812 440.535156 69.601562 446.933594 72 C 450.667969 73.601562 454.933594 74.132812 456.265625 73.066406 C 461.332031 70.132812 458.398438 67.199219 448 65.332031 C 436.800781 63.464844 436 62.398438 439.734375 56.265625 C 441.332031 53.867188 444.535156 53.332031 450.132812 54.667969 C 454.933594 55.734375 458.933594 55.199219 460 53.332031 C 461.066406 51.734375 461.332031 49.867188 461.066406 49.601562 C 458.398438 47.464844 434.933594 45.332031 433.867188 47.199219 Z M 433.867188 47.199219 "/>
<path style=" stroke:none;fill-rule:nonzero;fill:rgb(0%,0%,0%);fill-opacity:1;" d="M 475.464844 53.867188 C 471.734375 58.933594 464.800781 85.867188 466.132812 91.464844 C 467.199219 97.066406 480 104 489.066406 104 C 497.066406 104 502.398438 97.066406 508 78.398438 C 512.800781 62.398438 512.800781 61.332031 508.535156 61.332031 C 506.667969 61.332031 502.667969 68.800781 500 77.867188 C 494.933594 93.601562 494.132812 94.667969 486.132812 95.464844 C 473.332031 96.800781 470.667969 89.601562 477.332031 70.398438 C 482.398438 55.734375 481.332031 46.398438 475.464844 53.867188 Z M 475.464844 53.867188 "/>
<path style=" stroke:none;fill-rule:nonzero;fill:rgb(0%,0%,0%);fill-opacity:1;" d="M 283.464844 59.464844 C 278.933594 61.332031 274.398438 63.464844 273.332031 64.265625 C 272.535156 65.332031 274.933594 74.933594 278.398438 85.601562 C 285.066406 104.800781 285.332031 105.332031 293.601562 104.535156 C 304.535156 103.734375 313.332031 98.933594 310.132812 95.734375 C 308.535156 94.132812 304.800781 94.398438 300 96.535156 C 293.601562 99.464844 292.265625 99.199219 289.066406 94.667969 C 284 88 285.601562 84.265625 293.601562 83.199219 C 301.601562 82.132812 305.066406 78.667969 302.933594 74.933594 C 301.601562 72.800781 298.667969 73.066406 293.601562 76 C 288 78.667969 285.332031 78.933594 282.933594 76.535156 C 277.867188 71.464844 279.734375 67.464844 288.535156 65.066406 C 293.066406 63.734375 297.332031 61.066406 298.132812 59.199219 C 299.464844 55.199219 294.933594 55.464844 283.464844 59.464844 Z M 283.464844 59.464844 "/>
<path style=" stroke:none;fill-rule:nonzero;fill:rgb(0%,0%,0%);fill-opacity:1;" d="M 520.800781 89.066406 C 507.464844 105.332031 504 112 508.800781 112 C 510.132812 112 514.398438 107.199219 518.933594 101.332031 C 523.199219 95.464844 527.734375 90.667969 529.066406 90.667969 C 530.398438 90.667969 530.667969 97.332031 529.867188 105.332031 C 529.066406 113.332031 529.066406 120 529.867188 120 C 530.667969 120 535.734375 116.265625 541.332031 112 C 554.667969 101.332031 558.132812 101.601562 553.066406 113.332031 C 548.535156 124.800781 548.265625 130.667969 552.800781 130.667969 C 554.933594 130.667969 557.601562 124 559.734375 113.867188 C 561.867188 104.800781 564.535156 95.199219 565.867188 92.535156 C 570.667969 83.464844 565.601562 84.535156 552.535156 95.734375 C 545.066406 101.601562 538.398438 106.667969 537.332031 106.667969 C 536.265625 106.667969 536 98.933594 536.535156 89.332031 C 537.332031 79.734375 537.332031 72 536.265625 72 C 535.464844 72 528.265625 79.734375 520.800781 89.066406 Z M 520.800781 89.066406 "/>
<path style=" stroke:none;fill-rule:nonzero;fill:rgb(0%,0%,0%);fill-opacity:1;" d="M 236 78.933594 C 230.132812 81.066406 224.535156 83.734375 223.199219 85.066406 C 219.464844 88.800781 239.199219 125.332031 244.800781 125.332031 C 249.867188 125.332031 260.800781 118.398438 265.867188 112 C 270.667969 106.132812 269.867188 92.800781 264.535156 86.398438 C 260.535156 81.332031 250.132812 74.398438 247.464844 74.933594 C 246.933594 74.933594 241.867188 76.800781 236 78.933594 Z M 256 88 C 263.199219 95.199219 262.933594 108 255.464844 113.066406 C 246.398438 119.464844 244.265625 118.398438 237.332031 104.535156 C 233.601562 97.601562 230.398438 91.199219 229.867188 90.398438 C 228.800781 88.265625 240 83.199219 246.132812 82.933594 C 248.535156 82.667969 253.066406 85.066406 256 88 Z M 256 88 "/>
<path style=" stroke:none;fill-rule:nonzero;fill:rgb(0%,0%,0%);fill-opacity:1;" d="M 176.800781 112.800781 C 172 116 168 119.464844 168 120.800781 C 168 123.464844 194.667969 157.332031 196.800781 157.332031 C 200.800781 157.066406 216.800781 141.332031 214.933594 139.464844 C 213.867188 138.398438 210.933594 138.933594 208.535156 140.800781 C 200.265625 146.667969 197.332031 147.199219 193.332031 144 C 187.464844 139.199219 188.535156 134.667969 196 131.199219 C 199.734375 129.601562 202.667969 126.398438 202.667969 124 C 202.667969 118.667969 201.066406 118.933594 191.734375 125.601562 C 187.464844 128.535156 182.933594 130.132812 181.332031 129.332031 C 176.535156 126.398438 178.398438 120.265625 185.332031 115.734375 C 192.535156 111.199219 194.132812 106.667969 188.800781 106.933594 C 186.933594 106.933594 181.332031 109.601562 176.800781 112.800781 Z M 176.800781 112.800781 "/>
<path style=" stroke:none;fill-rule:nonzero;fill:rgb(0%,0%,0%);fill-opacity:1;" d="M 575.734375 114.398438 C 570.398438 119.734375 568 124.800781 568 130.667969 C 568 142.933594 580.535156 154.667969 593.332031 154.667969 C 606.132812 154.667969 618.667969 142.933594 618.667969 130.667969 C 618.667969 118.398438 606.132812 106.667969 593.332031 106.667969 C 586.132812 106.667969 581.601562 108.800781 575.734375 114.398438 Z M 603.734375 117.601562 C 616.535156 127.734375 610.132812 146.667969 593.867188 146.667969 C 583.734375 146.667969 576 140 576 130.933594 C 576 122.667969 578.132812 119.199219 585.332031 115.199219 C 592.800781 110.933594 595.734375 111.199219 603.734375 117.601562 Z M 603.734375 117.601562 "/>
<path style=" stroke:none;fill-rule:nonzero;fill:rgb(0%,0%,0%);fill-opacity:1;" d="M 364 116.265625 C 304.800781 125.332031 261.332031 142.132812 221.867188 171.199219 C 166.933594 211.734375 131.464844 265.066406 114.667969 333.332031 C 100.265625 390.933594 109.601562 462.933594 138.933594 520.535156 C 144.800781 532.265625 156.800781 548.535156 153.867188 541.332031 C 153.066406 539.199219 148.265625 526.398438 143.199219 513.332031 C 130.667969 481.601562 125.332031 450.933594 125.066406 413.332031 C 124.800781 353.867188 135.199219 316.535156 164.535156 271.734375 C 204 211.199219 266.132812 171.199219 338.667969 159.734375 C 370.667969 154.933594 441.332031 160.535156 449.601562 168.800781 C 450.667969 169.867188 453.601562 170.667969 456.265625 170.667969 C 462.933594 170.667969 498.398438 189.601562 516.800781 203.199219 C 560 234.933594 592 281.867188 610.398438 341.332031 C 615.199219 356.800781 615.734375 357.601562 614.933594 347.734375 C 614.398438 341.601562 613.332031 335.464844 612.265625 333.867188 C 611.464844 332.265625 610.132812 327.464844 609.601562 322.933594 C 609.066406 318.667969 606.667969 313.066406 604.265625 310.667969 C 601.867188 308.265625 600 303.734375 600 300.800781 C 600 293.867188 582.667969 262.398438 577.066406 259.199219 C 574.667969 257.867188 573.332031 256.265625 573.867188 255.464844 C 576.265625 251.464844 535.734375 209.066406 518.667969 197.867188 C 512.800781 193.867188 507.464844 190.132812 506.667969 189.332031 C 503.464844 185.601562 480.265625 173.867188 470.667969 170.667969 C 464.800781 168.800781 458.667969 166.132812 456.800781 164.800781 C 453.867188 162.398438 420.265625 153.601562 405.332031 151.199219 C 401.601562 150.398438 396.535156 151.199219 393.601562 152.535156 C 390.132812 154.398438 389.332031 154.398438 390.398438 152.265625 C 392.800781 148.535156 359.199219 148.265625 337.332031 152.265625 C 328.535156 153.601562 317.867188 155.464844 313.332031 156.265625 C 305.601562 157.601562 290.132812 163.734375 256.800781 178.667969 C 247.734375 182.933594 233.332031 191.199219 224.800781 197.601562 C 209.332031 208.800781 159.734375 257.601562 161.867188 259.464844 C 162.398438 260 161.066406 262.132812 158.667969 264 C 156.535156 265.867188 154.667969 268.265625 154.667969 269.332031 C 154.667969 270.398438 151.464844 277.066406 147.464844 284.265625 C 143.199219 291.464844 137.332031 303.199219 134.132812 310.667969 C 123.464844 334.398438 127.734375 316 138.933594 289.332031 C 156.265625 247.199219 186.667969 206.933594 217.332031 185.066406 C 226.132812 178.667969 234.933594 172.265625 236.800781 170.398438 C 244.265625 164.265625 284.800781 144.535156 302.667969 138.667969 C 313.066406 135.464844 323.734375 131.734375 326.667969 130.398438 C 344 123.199219 432 121.066406 448.800781 127.734375 C 452.800781 129.332031 460 130.933594 464.800781 131.734375 C 476.535156 133.066406 514.933594 148.265625 534.132812 159.199219 C 542.667969 164 550.398438 168 550.933594 168 C 551.464844 168 558.933594 173.601562 567.464844 180.265625 C 589.066406 197.601562 623.464844 233.867188 629.601562 245.867188 C 632.535156 251.464844 636 256 637.332031 256 C 638.933594 256 640 258.132812 640 261.066406 C 640 263.734375 641.867188 267.464844 644 269.332031 C 646.132812 271.199219 648 274.933594 648 277.867188 C 648 280.535156 649.332031 282.132812 650.667969 281.332031 C 652.265625 280.535156 653.332031 282.667969 653.332031 286.398438 C 653.332031 290.132812 654.667969 293.867188 656 294.667969 C 657.601562 295.464844 658.667969 299.199219 658.667969 302.933594 C 658.667969 306.398438 660 309.332031 661.332031 309.332031 C 662.933594 309.332031 664 312.265625 664 315.734375 C 664 319.464844 665.332031 323.199219 666.667969 324 C 668.265625 325.066406 668.800781 326.667969 668 328 C 666.132812 330.933594 671.734375 352 675.199219 355.734375 C 676.265625 357.332031 677.332031 355.464844 677.332031 351.464844 C 677.332031 347.464844 676.265625 343.734375 674.933594 342.933594 C 673.867188 342.132812 672 335.734375 670.933594 328.535156 C 669.066406 313.867188 657.332031 282.132812 646.667969 262.667969 C 625.867188 225.066406 594.398438 190.933594 557.332031 165.601562 C 538.132812 152.535156 501.066406 133.332031 494.667969 133.332031 C 493.601562 133.332031 489.066406 131.734375 484.535156 129.601562 C 463.734375 120 391.199219 112.265625 364 116.265625 Z M 364 116.265625 "/>
<path style=" stroke:none;fill-rule:nonzero;fill:rgb(0%,0%,0%);fill-opacity:1;" d="M 143.734375 141.066406 C 124 161.066406 148 192.265625 172.800781 178.933594 C 180.265625 174.933594 187.734375 163.734375 185.332031 160 C 182.667969 155.734375 179.464844 156.800781 177.867188 162.398438 C 175.734375 171.199219 164.800781 176.535156 155.464844 173.332031 C 140 167.734375 138.667969 146.132812 153.867188 142.398438 C 157.332031 141.332031 160 139.199219 160 137.066406 C 160 130.933594 152 132.800781 143.734375 141.066406 Z M 143.734375 141.066406 "/>
<path style=" stroke:none;fill-rule:nonzero;fill:rgb(0%,0%,0%);fill-opacity:1;" d="M 620.800781 154.398438 L 605.332031 169.601562 L 614.132812 178.132812 C 618.933594 182.933594 623.734375 186.667969 624.800781 186.667969 C 629.066406 186.667969 626.398438 178.933594 620.800781 174.933594 L 614.667969 170.667969 L 628.800781 157.867188 C 642.398438 145.332031 646.132812 138.398438 639.464844 138.933594 C 637.601562 138.933594 629.066406 145.867188 620.800781 154.398438 Z M 620.800781 154.398438 "/>
<path style=" stroke:none;fill-rule:nonzero;fill:rgb(0%,0%,0%);fill-opacity:1;" d="M 642.398438 175.734375 C 629.066406 189.332031 633.867188 210.132812 651.734375 216 C 662.667969 219.464844 671.734375 216.535156 679.734375 206.398438 C 687.734375 196.265625 686.933594 187.734375 676.265625 177.066406 C 664.535156 165.332031 653.332031 164.800781 642.398438 175.734375 Z M 672 181.332031 C 674.933594 184.265625 677.332031 189.601562 677.332031 193.066406 C 677.332031 200.535156 666.132812 210.667969 658.132812 210.667969 C 652 210.667969 640 199.199219 640 193.332031 C 640 186.667969 652.265625 176 660 176 C 663.734375 176 669.066406 178.398438 672 181.332031 Z M 672 181.332031 "/>
<path style=" stroke:none;fill-rule:nonzero;fill:rgb(0%,0%,0%);fill-opacity:1;" d="M 112.535156 173.066406 C 113.066406 174.132812 120.800781 181.601562 130.132812 189.066406 C 141.066406 198.132812 148.535156 202.667969 151.199219 201.601562 C 153.601562 200.535156 154.933594 199.464844 154.398438 198.933594 C 138.398438 183.199219 109.601562 165.332031 112.535156 173.066406 Z M 112.535156 173.066406 "/>
<path style=" stroke:none;fill-rule:nonzero;fill:rgb(0%,0%,0%);fill-opacity:1;" d="M 101.332031 186.132812 C 101.332031 187.464844 105.601562 194.132812 110.933594 201.066406 C 116.265625 208 120 214.398438 119.199219 214.933594 C 118.398438 215.734375 110.933594 214.398438 102.398438 212.265625 C 90.667969 209.066406 86.398438 209.066406 84.800781 211.464844 C 82.132812 216 86.933594 218.132812 105.066406 220 C 114.132812 221.066406 124 222.933594 127.464844 224.265625 C 135.734375 227.464844 134.933594 224.535156 121.066406 203.734375 C 110.132812 187.199219 101.332031 179.464844 101.332031 186.132812 Z M 101.332031 186.132812 "/>
<path style=" stroke:none;fill-rule:nonzero;fill:rgb(0%,0%,0%);fill-opacity:1;" d="M 681.066406 221.332031 C 666.132812 227.199219 662.667969 245.332031 673.601562 258.398438 C 680.800781 266.933594 690.667969 269.066406 698.667969 264 C 702.132812 261.867188 702.132812 260.800781 698.667969 254.398438 C 696.535156 250.398438 693.601562 247.464844 692 247.734375 C 689.066406 248.535156 689.066406 249.332031 692 256.535156 C 694.398438 262.667969 688.800781 262.933594 680.535156 257.066406 C 673.066406 252 672.535156 237.332031 679.464844 231.199219 C 690.667969 220.800781 709.332031 228.800781 709.332031 243.464844 C 709.332031 248 710.667969 250.667969 713.332031 250.667969 C 720.535156 250.667969 718.132812 235.199219 709.601562 226.398438 C 701.601562 218.398438 692.265625 216.800781 681.066406 221.332031 Z M 681.066406 221.332031 "/>
<path style=" stroke:none;fill-rule:nonzero;fill:rgb(0%,0%,0%);fill-opacity:1;" d="M 72.265625 236.265625 C 69.066406 240.265625 66.667969 244.535156 66.667969 245.601562 C 66.667969 248.800781 108.265625 269.601562 110.398438 267.464844 C 113.867188 264 111.734375 261.601562 102.667969 258.398438 C 91.199219 254.132812 90.667969 250.667969 101.066406 250.667969 C 105.332031 250.667969 112 249.601562 115.734375 248 C 124.800781 244.535156 124.800781 238.933594 116 241.066406 C 112.265625 241.867188 106.398438 243.464844 102.667969 244.265625 C 97.332031 245.601562 96 244.800781 96 240.800781 C 96 228.265625 80.800781 225.332031 72.265625 236.265625 Z M 86.398438 236.265625 C 91.199219 238.132812 92.265625 246.667969 88 249.332031 C 86.667969 250.132812 82.933594 249.601562 80 248 C 75.734375 245.601562 75.199219 244 77.332031 240 C 80.535156 234.132812 80.535156 234.132812 86.398438 236.265625 Z M 86.398438 236.265625 "/>
<path style=" stroke:none;fill-rule:nonzero;fill:rgb(0%,0%,0%);fill-opacity:1;" d="M 296.535156 242.933594 C 256.265625 262.933594 214.132812 369.332031 216.535156 445.332031 C 217.066406 469.601562 218.132812 475.464844 222.933594 481.867188 C 231.199219 493.066406 238.933594 492.535156 265.867188 478.933594 C 297.066406 463.464844 307.464844 461.066406 337.332031 464 C 350.667969 465.066406 361.867188 465.601562 362.398438 465.066406 C 362.933594 464.535156 360.265625 460.800781 356.265625 456.800781 C 344.265625 444.800781 336.265625 421.601562 336 398.398438 C 336 388.800781 334.933594 386.667969 326.132812 380.535156 C 299.464844 362.933594 285.332031 342.933594 285.332031 323.199219 C 285.332031 300.535156 295.199219 297.601562 305.066406 317.066406 C 313.066406 332.800781 331.734375 349.867188 346.398438 354.667969 C 352.535156 356.535156 358.132812 357.601562 358.667969 356.800781 C 359.464844 356 356.535156 351.734375 352 347.199219 C 342.398438 337.601562 341.867188 332 350.132812 321.867188 C 360.800781 308.535156 387.199219 307.464844 398.667969 320 C 402.132812 324 402.933594 328 401.867188 336 C 401.066406 341.867188 401.066406 346.667969 401.601562 346.667969 C 403.734375 346.667969 430.667969 327.199219 438.132812 320.265625 C 442.132812 316.535156 449.332031 307.464844 453.867188 300 C 470.933594 272.800781 480 268.535156 480 288 C 480 301.601562 472 313.332031 434.132812 354.933594 C 411.734375 379.464844 405.867188 388.535156 399.464844 408.800781 C 393.066406 429.601562 393.332031 438.933594 401.332031 455.199219 L 408.265625 468.800781 L 442.132812 468.265625 C 475.464844 468 476.265625 468 492.535156 476.535156 C 516.535156 489.332031 530.132812 488.265625 538.132812 473.601562 C 541.601562 467.199219 542.398438 458.933594 542.132812 436 C 541.601562 352.800781 509.867188 276.535156 464.265625 247.464844 C 447.734375 237.066406 437.332031 237.601562 427.199219 249.066406 C 418.667969 258.933594 408 284 408 294.667969 C 408 302.132812 406.132812 302.667969 392 298.398438 C 384 296 379.199219 296.265625 367.199219 299.734375 C 359.199219 302.132812 352 304 351.199219 304 C 350.667969 304 349.332031 295.734375 348.535156 285.601562 C 346.667969 261.867188 338.933594 246.132812 326.667969 241.066406 C 314.398438 236 310.132812 236.265625 296.535156 242.933594 Z M 328.800781 256 C 332.800781 260.535156 336.800781 270.398438 338.667969 279.199219 C 340.265625 287.734375 343.199219 297.867188 345.332031 301.867188 C 348.800781 308.535156 348.265625 310.398438 342.132812 321.867188 C 338.132812 329.066406 334.933594 334.933594 334.398438 335.464844 C 332.265625 338.398438 321.867188 328.800781 316 318.933594 C 303.734375 298.132812 294.132812 293.066406 283.464844 302.398438 C 277.332031 307.734375 276.265625 310.667969 276.535156 321.867188 C 276.535156 329.332031 278.667969 339.734375 281.332031 345.066406 C 286.398438 355.464844 305.867188 377.066406 318.398438 385.867188 C 324.535156 390.132812 326.398438 393.867188 328.535156 406.933594 C 329.867188 415.464844 333.332031 429.066406 336 436.800781 C 343.464844 456.800781 343.464844 456.800781 326.132812 455.464844 C 306.933594 453.867188 287.199219 458.667969 263.464844 470.667969 C 242.398438 481.601562 237.332031 482.132812 230.398438 474.398438 C 226.132812 469.867188 225.332031 464.535156 225.332031 445.601562 C 225.332031 416 227.199219 402.398438 236 366.667969 C 248.535156 316 277.867188 262.933594 298.933594 252.535156 C 312.800781 245.867188 321.066406 246.667969 328.800781 256 Z M 460.265625 256.265625 C 470.933594 262.667969 471.734375 268 463.199219 274.667969 C 460 277.332031 452 286.933594 445.601562 296.535156 C 434.933594 312.535156 420.800781 325.332031 414.132812 325.332031 C 412.535156 325.332031 409.332031 322.132812 406.667969 318.398438 C 402.398438 311.734375 402.398438 311.464844 409.066406 305.332031 C 412.800781 301.867188 416 297.066406 416 294.667969 C 416 289.332031 428.800781 261.601562 434.132812 255.199219 C 439.464844 249.066406 449.332031 249.332031 460.265625 256.265625 Z M 514.398438 328.800781 C 525.601562 358.132812 532.800781 392.535156 534.667969 428 C 536.265625 453.332031 535.734375 458.667969 531.464844 466.667969 C 527.199219 475.199219 525.601562 476 516.265625 475.464844 C 510.398438 474.933594 499.734375 471.734375 492.535156 467.734375 C 475.464844 458.933594 455.464844 455.734375 434.132812 458.667969 C 419.464844 460.800781 416.800781 460.535156 412.535156 456.265625 C 405.332031 449.066406 402.398438 432.800781 405.332031 417.332031 C 409.066406 399.199219 420.535156 381.867188 451.734375 347.464844 C 467.199219 330.398438 480.535156 312.800781 484.800781 304.265625 L 491.464844 289.601562 L 498.667969 298.398438 C 502.667969 303.199219 509.867188 316.800781 514.398438 328.800781 Z M 514.398438 328.800781 "/>
<path style=" stroke:none;fill-rule:nonzero;fill:rgb(0%,0%,0%);fill-opacity:1;" d="M 55.199219 273.332031 L 50.933594 285.332031 L 63.464844 289.066406 C 70.398438 290.933594 80.535156 294.667969 86.132812 296.800781 L 96 301.066406 L 100 291.464844 C 102.132812 286.398438 104 280.265625 104 278.398438 C 104 271.734375 98.398438 274.398438 95.734375 282.667969 C 92.800781 290.667969 87.464844 292.800781 80.265625 288.265625 C 77.601562 286.667969 77.332031 284.800781 79.734375 280.535156 C 81.332031 277.601562 82.667969 273.066406 82.667969 270.667969 C 82.667969 264 76.265625 267.464844 74.667969 274.933594 C 73.601562 278.933594 70.933594 281.601562 66.933594 282.132812 C 61.601562 282.933594 60.800781 282.132812 61.867188 276.800781 C 62.667969 273.601562 64.265625 268.535156 65.332031 265.867188 C 66.667969 262.667969 66.132812 261.332031 63.199219 261.332031 C 60.800781 261.332031 57.601562 266.132812 55.199219 273.332031 Z M 55.199219 273.332031 "/>
<path style=" stroke:none;fill-rule:nonzero;fill:rgb(0%,0%,0%);fill-opacity:1;" d="M 703.199219 272.800781 C 691.734375 277.332031 682.933594 282.132812 683.464844 283.734375 C 684.800781 287.734375 688.535156 286.933594 711.464844 278.398438 C 722.398438 274.398438 730.667969 269.601562 730.667969 267.734375 C 730.667969 262.667969 727.199219 263.199219 703.199219 272.800781 Z M 703.199219 272.800781 "/>
<path style=" stroke:none;fill-rule:nonzero;fill:rgb(0%,0%,0%);fill-opacity:1;" d="M 725.332031 287.734375 C 723.199219 289.066406 714.933594 291.464844 707.199219 293.332031 C 699.734375 294.933594 692.800781 297.332031 692.265625 298.398438 C 690.132812 301.867188 697.066406 322.667969 700.535156 322.667969 C 704.800781 322.667969 705.066406 318.667969 701.066406 311.464844 C 698.667969 306.667969 698.933594 305.066406 702.933594 302.132812 C 708.535156 298.132812 714.667969 297.601562 714.667969 301.066406 C 714.667969 302.398438 716 306.933594 717.332031 310.933594 C 719.199219 315.734375 721.066406 317.332031 722.933594 315.464844 C 724.535156 313.867188 724.535156 310.398438 722.667969 305.332031 C 720.535156 299.464844 720.535156 297.332031 723.199219 295.464844 C 728.535156 292.265625 731.734375 294.398438 734.398438 303.464844 C 735.734375 308.265625 738.398438 312 740.265625 312 C 745.066406 312 744.800781 310.667969 739.734375 296.800781 C 735.199219 285.332031 732.800781 283.734375 725.332031 287.734375 Z M 725.332031 287.734375 "/>
<path style=" stroke:none;fill-rule:nonzero;fill:rgb(0%,0%,0%);fill-opacity:1;" d="M 45.867188 304.535156 C 44 306.398438 42.667969 310.933594 42.667969 314.667969 C 42.667969 329.867188 55.199219 332.265625 68.265625 319.734375 C 73.601562 314.398438 78.667969 312 81.066406 312.800781 C 86.398438 314.933594 86.667969 325.066406 81.332031 326.933594 C 77.066406 328.800781 75.734375 336 79.734375 336 C 83.464844 336 90.132812 328.800781 92.265625 322.132812 C 93.601562 317.867188 92.265625 314.933594 86.933594 310.132812 C 77.601562 302.398438 76.800781 302.398438 65.332031 312.265625 C 60 317.066406 54.398438 320 52 318.933594 C 46.933594 317.066406 46.933594 313.601562 52 309.332031 C 54.132812 307.464844 56 305.066406 56 303.734375 C 56 300.265625 49.601562 300.800781 45.867188 304.535156 Z M 45.867188 304.535156 "/>
<path style=" stroke:none;fill-rule:nonzero;fill:rgb(0%,0%,0%);fill-opacity:1;" d="M 614.398438 390.398438 C 614.398438 407.464844 615.464844 421.332031 616.535156 421.332031 C 619.464844 421.332031 619.199219 367.464844 616.265625 363.199219 C 614.933594 361.066406 614.132812 372.535156 614.398438 390.398438 Z M 614.398438 390.398438 "/>
<path style=" stroke:none;fill-rule:nonzero;fill:rgb(0%,0%,0%);fill-opacity:1;" d="M 673.867188 378.667969 C 673.066406 389.601562 672.535156 406.933594 672.800781 417.332031 C 673.332031 434.398438 669.867188 453.066406 663.734375 464.535156 C 662.398438 467.199219 662.398438 469.601562 664 470.667969 C 666.933594 472.535156 672.800781 459.464844 670.667969 456 C 670.132812 454.933594 671.199219 450.398438 673.332031 446.132812 C 677.332031 438.398438 678.398438 417.601562 676.535156 393.332031 C 675.734375 385.867188 676 379.464844 677.066406 378.667969 C 678.132812 377.867188 678.132812 373.066406 677.332031 368 C 676 360.535156 675.464844 362.398438 673.867188 378.667969 Z M 673.867188 378.667969 "/>
<path style=" stroke:none;fill-rule:nonzero;fill:rgb(0%,0%,0%);fill-opacity:1;" d="M 610.933594 436.535156 C 609.601562 442.132812 607.464844 450.132812 606.667969 454.667969 L 605.066406 462.667969 L 608.800781 454.667969 C 612.800781 445.867188 617.066406 426.667969 614.933594 426.667969 C 614.132812 426.667969 612.265625 431.199219 610.933594 436.535156 Z M 610.933594 436.535156 "/>
<path style=" stroke:none;fill-rule:nonzero;fill:rgb(0%,0%,0%);fill-opacity:1;" d="M 56 440.265625 C 40.800781 445.867188 36.265625 468 48 478.667969 C 54.398438 484.535156 58.132812 478.933594 52.265625 472.265625 C 42.933594 461.867188 52 445.332031 66.933594 445.332031 C 77.066406 445.332031 86.132812 457.066406 84 467.199219 C 81.867188 476.265625 87.199219 477.601562 90.398438 468.800781 C 97.066406 450.667969 75.199219 432.800781 56 440.265625 Z M 56 440.265625 "/>
<path style=" stroke:none;fill-rule:nonzero;fill:rgb(0%,0%,0%);fill-opacity:1;" d="M 724 444.535156 C 695.734375 451.199219 696 450.398438 719.199219 467.199219 C 732.800781 477.066406 740.800781 481.332031 742.667969 479.464844 C 745.066406 477.332031 739.734375 471.199219 733.066406 468.800781 C 732 468.265625 732 463.734375 733.066406 458.667969 C 734.398438 452 736.535156 449.066406 740.535156 448.535156 C 743.734375 448 747.734375 445.867188 749.332031 443.734375 C 752 440.800781 751.464844 440 746.398438 440.265625 C 742.933594 440.535156 732.800781 442.398438 724 444.535156 Z M 728 455.734375 C 728 462.933594 724.800781 464.265625 718.933594 460 C 713.332031 455.734375 715.464844 450.667969 722.933594 450.667969 C 726.132812 450.667969 728 452.535156 728 455.734375 Z M 728 455.734375 "/>
<path style=" stroke:none;fill-rule:nonzero;fill:rgb(0%,0%,0%);fill-opacity:1;" d="M 72.800781 488.800781 C 59.464844 493.601562 50.667969 498.132812 50.667969 500.265625 C 50.667969 505.066406 55.464844 504.800781 64 500 C 73.332031 494.667969 74.132812 494.933594 78.667969 505.601562 C 84 518.398438 83.734375 519.199219 75.464844 520.800781 C 64.265625 523.464844 59.464844 527.199219 62.933594 530.667969 C 65.332031 533.066406 68 532.800781 73.601562 529.867188 C 77.867188 527.734375 87.734375 524 95.464844 521.332031 C 103.464844 518.667969 109.066406 515.464844 108.535156 513.867188 C 107.464844 510.667969 104 510.398438 94.667969 513.332031 C 90.132812 514.667969 88.535156 513.332031 85.867188 505.601562 C 81.867188 494.933594 83.199219 490.667969 90.667969 490.667969 C 93.332031 490.667969 96.535156 489.332031 97.601562 487.734375 C 101.601562 481.066406 93.332031 481.601562 72.800781 488.800781 Z M 72.800781 488.800781 "/>
<path style=" stroke:none;fill-rule:nonzero;fill:rgb(0%,0%,0%);fill-opacity:1;" d="M 697.066406 482.933594 C 692.265625 485.332031 678.398438 508.800781 680.535156 510.667969 C 683.734375 513.601562 721.601562 525.332031 724.265625 524.265625 C 726.132812 523.464844 729.066406 518.132812 730.667969 512.265625 C 734.398438 498.132812 730.667969 488.800781 718.667969 484 C 708.265625 479.464844 704.800781 479.199219 697.066406 482.933594 Z M 720 492.800781 C 725.066406 497.066406 725.867188 499.199219 724.265625 507.464844 C 723.199219 512.800781 721.601562 517.332031 720.800781 517.332031 C 720 517.332031 712.800781 515.199219 704.800781 512.800781 C 689.066406 508 686.667969 502.667969 696 493.332031 C 702.667969 486.667969 712.265625 486.398438 720 492.800781 Z M 720 492.800781 "/>
<path style=" stroke:none;fill-rule:nonzero;fill:rgb(0%,0%,0%);fill-opacity:1;" d="M 657.066406 488.535156 C 652 496.535156 645.332031 510.667969 645.332031 513.332031 C 645.332031 514.933594 641.867188 520 637.332031 524.800781 C 633.066406 529.601562 629.332031 534.667969 629.332031 535.734375 C 629.332031 539.464844 598.933594 565.867188 591.199219 568.800781 C 588.800781 569.601562 586.667969 571.734375 586.667969 573.332031 C 586.667969 574.667969 585.066406 576 582.933594 576 C 580.800781 576 577.066406 578.667969 574.933594 581.867188 C 572.535156 585.066406 570.667969 586.933594 570.667969 585.867188 C 570.667969 584.800781 568 585.332031 564.800781 587.199219 C 561.332031 589.066406 557.867188 590.132812 556.800781 589.867188 C 555.464844 589.601562 554.667969 590.933594 554.667969 593.066406 C 554.667969 595.199219 550.933594 597.867188 546.132812 598.667969 C 538.132812 600.535156 528.535156 604.800781 525.332031 608 C 521.867188 611.464844 511.734375 615.734375 502.933594 617.332031 C 497.601562 618.398438 493.332031 620 493.332031 621.066406 C 493.332031 622.132812 489.332031 623.199219 484.800781 623.199219 C 480 623.199219 470.132812 624.265625 462.667969 625.601562 C 442.398438 629.066406 409.332031 628.265625 392 623.464844 C 376.265625 619.199219 352 609.601562 352 607.464844 C 352 606.132812 349.332031 605.332031 346.132812 605.332031 C 342.398438 605.332031 341.066406 604.535156 342.933594 602.667969 C 344.535156 601.066406 350.398438 601.332031 359.464844 603.734375 C 379.464844 609.066406 414.933594 608.535156 426.933594 602.667969 C 434.933594 598.398438 442.667969 588.265625 442.667969 581.601562 C 442.667969 580.535156 440 576.800781 436.800781 573.066406 C 433.601562 569.601562 428.535156 564 425.601562 560.535156 L 420.265625 554.398438 L 436 555.734375 C 444.800781 556.535156 458.398438 558.132812 466.398438 558.933594 C 486.933594 561.601562 520.800781 555.464844 536 546.398438 C 538.132812 545.066406 542.667969 542.933594 545.867188 541.332031 C 553.332031 538.132812 582.398438 509.601562 580.265625 507.464844 C 579.464844 506.667969 573.066406 512 566.132812 518.933594 C 550.132812 535.199219 531.199219 545.332031 509.066406 549.601562 C 481.867188 554.667969 477.601562 554.667969 444 548.800781 C 401.601562 541.332031 382.933594 539.734375 384.535156 544 C 385.066406 545.867188 393.867188 551.464844 403.734375 557.066406 C 429.066406 570.398438 438.132812 578.933594 435.199219 587.199219 C 432 595.199219 419.199219 599.734375 398.132812 599.734375 C 372.265625 600 344.265625 593.332031 303.734375 577.332031 C 261.867188 560.535156 251.464844 557.867188 242.933594 562.398438 C 235.734375 566.398438 237.601562 569.601562 248.265625 571.734375 C 252.800781 572.535156 265.601562 577.601562 276.535156 582.667969 C 287.464844 587.734375 296.800781 592 297.332031 592 C 297.867188 592 314.667969 599.734375 334.933594 609.332031 C 356.265625 619.734375 379.199219 628.535156 390.398438 630.933594 C 424.265625 638.132812 473.867188 634.132812 506.667969 621.601562 C 525.066406 614.398438 561.066406 596.800781 562.132812 593.867188 C 562.667969 592.800781 564.265625 592 565.867188 592 C 567.464844 592 578.132812 585.066406 589.867188 576.800781 C 608.535156 563.464844 626.398438 546.398438 641.066406 528 C 647.464844 520 662.398438 488.265625 660.535156 486.398438 C 659.734375 485.601562 658.132812 486.667969 657.066406 488.535156 Z M 657.066406 488.535156 "/>
<path style=" stroke:none;fill-rule:nonzero;fill:rgb(0%,0%,0%);fill-opacity:1;" d="M 673.601562 522.132812 C 671.464844 525.601562 676.265625 529.066406 694.132812 537.066406 C 709.867188 544 711.464844 546.132812 706.132812 551.464844 C 704.535156 553.066406 704 555.464844 705.066406 556.535156 C 707.734375 559.464844 717.332031 547.199219 715.734375 543.199219 C 714.667969 540.535156 700.535156 532 676.800781 520.535156 C 676 520 674.398438 520.800781 673.601562 522.132812 Z M 673.601562 522.132812 "/>
<path style=" stroke:none;fill-rule:nonzero;fill:rgb(0%,0%,0%);fill-opacity:1;" d="M 98.667969 533.332031 C 78.667969 546.132812 77.332031 547.734375 77.332031 554.933594 C 77.332031 563.464844 88.265625 576 96 576 C 98.933594 576 108.265625 572.265625 116.800781 567.464844 C 135.734375 557.066406 134.933594 557.867188 131.464844 554.398438 C 129.601562 552.535156 124.535156 554.132812 114.933594 559.734375 C 99.734375 568.800781 92.800781 569.867188 88 564.265625 C 81.601562 556.265625 86.132812 548.800781 101.867188 540.265625 C 110.398438 535.734375 117.332031 530.398438 117.332031 528.535156 C 117.332031 523.464844 111.734375 525.066406 98.667969 533.332031 Z M 98.667969 533.332031 "/>
<path style=" stroke:none;fill-rule:nonzero;fill:rgb(0%,0%,0%);fill-opacity:1;" d="M 661.332031 547.464844 C 661.332031 549.332031 667.199219 554.398438 674.667969 558.667969 C 689.066406 567.199219 692.535156 572.800781 688 581.332031 C 683.734375 589.066406 675.199219 588 659.734375 577.601562 C 647.199219 569.066406 642.667969 568 642.667969 573.332031 C 642.667969 576.535156 673.867188 594.667969 679.199219 594.667969 C 685.332031 594.667969 694.667969 585.332031 697.332031 576.535156 C 699.464844 569.066406 694.933594 563.199219 677.332031 552 C 663.464844 543.199219 661.332031 542.398438 661.332031 547.464844 Z M 661.332031 547.464844 "/>
<path style=" stroke:none;fill-rule:nonzero;fill:rgb(0%,0%,0%);fill-opacity:1;" d="M 134.132812 598.132812 C 123.464844 604.265625 114.933594 610.933594 114.667969 612.535156 C 114.667969 617.601562 117.601562 616.800781 128.800781 609.066406 C 134.398438 605.332031 139.734375 602.933594 140.800781 603.734375 C 141.601562 604.800781 139.734375 610.667969 136.800781 617.066406 C 133.601562 623.464844 131.734375 629.332031 132.265625 630.132812 C 133.066406 630.933594 139.199219 629.601562 145.601562 627.464844 C 152.265625 625.332031 158.398438 624 159.199219 624.800781 C 160 625.601562 157.332031 630.667969 153.066406 636 C 148.265625 642.398438 146.667969 646.398438 148.535156 648.265625 C 150.398438 650.132812 155.734375 644.535156 165.066406 630.667969 C 178.132812 611.464844 181.066406 602.933594 172.265625 610.398438 C 170.132812 612.265625 165.066406 614.667969 160.800781 615.734375 C 156.800781 617.066406 151.199219 618.933594 148.800781 620 C 146.132812 621.066406 144 620.800781 144 619.199219 C 144 617.066406 151.199219 599.464844 156.800781 588.535156 C 158.667969 584.800781 153.066406 587.199219 134.132812 598.132812 Z M 134.132812 598.132812 "/>
<path style=" stroke:none;fill-rule:nonzero;fill:rgb(0%,0%,0%);fill-opacity:1;" d="M 230.667969 591.734375 C 227.734375 596.800781 237.601562 602.398438 249.601562 602.667969 C 255.734375 602.667969 271.464844 605.867188 284.265625 609.601562 C 320.535156 620.265625 319.464844 620 314.667969 615.199219 C 312.535156 612.800781 299.199219 606.667969 285.332031 601.332031 C 257.601562 590.667969 234.132812 586.667969 230.667969 591.734375 Z M 230.667969 591.734375 "/>
<path style=" stroke:none;fill-rule:nonzero;fill:rgb(0%,0%,0%);fill-opacity:1;" d="M 624 595.199219 C 608.535156 605.867188 608.265625 622.667969 623.199219 634.667969 C 642.933594 650.132812 670.667969 625.066406 658.398438 602.132812 C 656 597.332031 641.332031 589.332031 635.199219 589.332031 C 633.867188 589.332031 628.800781 592 624 595.199219 Z M 649.332031 604 C 657.332031 611.734375 657.601562 616 650.398438 625.066406 C 643.464844 633.867188 631.734375 634.398438 624 626.132812 C 616.800781 618.132812 617.332031 609.601562 625.601562 602.933594 C 634.933594 595.734375 641.332031 596 649.332031 604 Z M 649.332031 604 "/>
<path style=" stroke:none;fill-rule:nonzero;fill:rgb(0%,0%,0%);fill-opacity:1;" d="M 248.535156 616.535156 C 249.332031 618.933594 257.601562 620.535156 272.265625 621.332031 C 294.933594 622.933594 298.132812 622.667969 295.199219 619.734375 C 289.332031 613.867188 246.667969 610.933594 248.535156 616.535156 Z M 248.535156 616.535156 "/>
<path style=" stroke:none;fill-rule:nonzero;fill:rgb(0%,0%,0%);fill-opacity:1;" d="M 178.398438 637.066406 C 168.535156 646.933594 168.265625 658.132812 177.601562 669.066406 C 187.464844 681.066406 204.535156 681.066406 214.398438 669.066406 C 223.734375 657.867188 223.464844 647.734375 213.066406 637.601562 C 202.132812 626.398438 189.332031 626.398438 178.398438 637.066406 Z M 208.535156 641.867188 C 218.933594 651.199219 209.332031 672 194.398438 672 C 181.332031 672 174.132812 652.265625 183.199219 642.132812 C 188.535156 636.265625 201.867188 636 208.535156 641.867188 Z M 208.535156 641.867188 "/>
<path style=" stroke:none;fill-rule:nonzero;fill:rgb(0%,0%,0%);fill-opacity:1;" d="M 573.332031 636.265625 C 573.332031 637.066406 578.933594 646.132812 586.132812 656 C 597.332031 672.535156 605.332031 679.199219 605.332031 672 C 605.332031 667.464844 580.265625 634.667969 576.800781 634.667969 C 574.933594 634.667969 573.332031 635.464844 573.332031 636.265625 Z M 573.332031 636.265625 "/>
<path style=" stroke:none;fill-rule:nonzero;fill:rgb(0%,0%,0%);fill-opacity:1;" d="M 562.667969 647.199219 C 562.667969 649.867188 564 657.332031 565.601562 663.734375 C 566.933594 670.132812 567.464844 676 566.933594 676.800781 C 566.132812 677.332031 559.464844 673.601562 552 668 C 543.734375 661.867188 537.332031 658.933594 535.734375 660.535156 C 534.398438 661.867188 541.601562 668.800781 554.667969 678.132812 L 576 693.332031 L 574.398438 683.199219 C 573.601562 677.867188 572 666.933594 571.199219 658.933594 C 570.132812 650.933594 567.734375 644 566.132812 643.199219 C 564 642.667969 562.667969 644.265625 562.667969 647.199219 Z M 562.667969 647.199219 "/>
<path style=" stroke:none;fill-rule:nonzero;fill:rgb(0%,0%,0%);fill-opacity:1;" d="M 228.800781 672.800781 C 223.199219 683.464844 218.667969 693.867188 218.667969 695.464844 C 218.667969 702.132812 224.535156 698.398438 228.265625 689.332031 C 232.535156 678.667969 233.066406 678.398438 246.667969 684 L 256.265625 688.265625 L 250.667969 697.867188 C 246.933594 704.535156 245.867188 708.265625 247.734375 710.132812 C 251.199219 713.601562 250.667969 714.667969 262.667969 691.199219 C 269.867188 677.332031 272 670.933594 269.867188 668.800781 C 268 666.933594 265.867188 668.535156 262.667969 674.398438 C 260.265625 679.199219 257.601562 682.667969 256.535156 681.867188 C 255.464844 681.332031 250.667969 679.199219 246.132812 677.332031 C 236.265625 673.066406 235.464844 670.398438 241.601562 663.734375 C 245.601562 659.464844 244.800781 653.332031 240.535156 653.332031 C 239.464844 653.332031 234.132812 662.132812 228.800781 672.800781 Z M 228.800781 672.800781 "/>
<path style=" stroke:none;fill-rule:nonzero;fill:rgb(0%,0%,0%);fill-opacity:1;" d="M 482.667969 680.800781 C 478.933594 682.398438 475.464844 684 474.933594 684.265625 C 474.667969 684.800781 477.332031 694.667969 481.332031 706.667969 C 489.332031 730.398438 489.867188 730.667969 508 720.265625 C 522.933594 711.734375 525.066406 697.066406 513.066406 684 C 506.398438 676.800781 494.398438 675.464844 482.667969 680.800781 Z M 510.667969 693.332031 C 516.265625 704 513.867188 710.398438 503.199219 715.464844 C 498.667969 717.867188 494.667969 719.464844 494.398438 719.199219 C 492 716.800781 483.199219 689.332031 484.265625 687.464844 C 485.066406 686.398438 490.398438 685.332031 496 685.332031 C 505.066406 685.332031 507.199219 686.398438 510.667969 693.332031 Z M 510.667969 693.332031 "/>
<path style=" stroke:none;fill-rule:nonzero;fill:rgb(0%,0%,0%);fill-opacity:1;" d="M 279.464844 697.066406 C 265.332031 712.265625 260.800781 720 265.867188 720 C 266.933594 720 270.398438 717.601562 273.601562 714.398438 C 278.398438 709.867188 280.800781 709.332031 288.265625 711.464844 C 295.464844 713.066406 297.601562 715.199219 298.667969 721.601562 C 300 729.066406 305.332031 731.734375 305.332031 724.535156 C 304.800781 707.464844 300.265625 680 297.601562 680.265625 C 296 680.535156 287.734375 688 279.464844 697.066406 Z M 296 700 C 296 704 294.398438 706.667969 292.265625 706.667969 C 286.398438 706.667969 284.265625 701.601562 288 697.332031 C 292.800781 691.464844 296 692.535156 296 700 Z M 296 700 "/>
<path style=" stroke:none;fill-rule:nonzero;fill:rgb(0%,0%,0%);fill-opacity:1;" d="M 448.265625 688.535156 C 439.734375 690.933594 439.464844 691.464844 441.332031 700.800781 C 442.398438 706.132812 444 716 445.066406 722.667969 L 446.667969 734.667969 L 458.667969 733.601562 C 472 732.800781 474.667969 731.734375 474.667969 727.464844 C 474.667969 725.601562 470.933594 725.332031 464.265625 726.398438 C 455.199219 727.734375 453.867188 727.199219 452.265625 721.867188 C 449.867188 712.800781 450.132812 712.265625 459.199219 711.464844 C 463.734375 710.933594 468 709.066406 468.800781 706.933594 C 469.601562 704.265625 467.734375 703.734375 458.667969 705.332031 C 448 707.199219 447.734375 706.933594 448.535156 701.066406 C 449.066406 696.535156 451.464844 694.398438 457.066406 693.332031 C 461.332031 692.535156 465.332031 690.398438 466.132812 688.535156 C 467.199219 684.800781 461.332031 684.800781 448.265625 688.535156 Z M 448.265625 688.535156 "/>
<path style=" stroke:none;fill-rule:nonzero;fill:rgb(0%,0%,0%);fill-opacity:1;" d="M 328 691.734375 C 328 694.132812 324.800781 703.734375 320.800781 713.332031 C 317.066406 722.933594 314.398438 731.464844 315.464844 732.265625 C 318.398438 735.464844 322.667969 730.398438 325.332031 720 C 326.933594 714.132812 329.332031 709.332031 330.398438 709.332031 C 331.734375 709.332031 334.398438 715.199219 336.265625 722.667969 C 338.132812 730.132812 340.535156 736 341.601562 736 C 342.667969 736 346.933594 730.398438 351.199219 723.199219 L 358.667969 710.667969 L 360 725.066406 C 361.332031 740.535156 368 747.734375 368 733.867188 C 368 720.265625 364.535156 693.332031 362.933594 693.332031 C 362.132812 693.332031 358.132812 699.464844 354.132812 706.667969 C 349.867188 714.132812 345.601562 720 344 720 C 341.867188 720 337.867188 708.265625 335.464844 694.933594 C 334.398438 688.535156 328 685.867188 328 691.734375 Z M 328 691.734375 "/>
<path style=" stroke:none;fill-rule:nonzero;fill:rgb(0%,0%,0%);fill-opacity:1;" d="M 383.199219 716.535156 C 380.800781 729.332031 379.199219 740.265625 380 740.800781 C 382.933594 743.734375 386.667969 737.332031 388.265625 726.667969 C 389.066406 720 390.933594 714.667969 392 714.667969 C 393.066406 714.667969 396.265625 720 399.199219 726.667969 C 403.734375 737.867188 410.667969 742.933594 410.667969 734.933594 C 410.667969 733.066406 412.535156 726.667969 414.933594 721.066406 C 419.734375 709.867188 422.132812 711.464844 425.066406 728.535156 C 426.132812 734.933594 428.535156 738.667969 430.667969 738.667969 C 435.734375 738.667969 435.734375 737.066406 429.332031 718.667969 C 426.398438 710.132812 424 701.066406 424 698.132812 C 424 688.535156 419.199219 693.601562 413.332031 709.332031 C 410.132812 718.132812 406.933594 725.332031 406.398438 725.332031 C 405.867188 725.332031 401.867188 718.132812 397.332031 709.332031 C 392.800781 700.535156 388.800781 693.332031 388.535156 693.332031 C 388 693.332031 385.601562 703.734375 383.199219 716.535156 Z M 383.199219 716.535156 "/>
</g>
</svg>
